<?xml version="1.0" standalone="no"?><!DOCTYPE svg PUBLIC "-//W3C//DTD SVG 1.1//EN" "http://www.w3.org/Graphics/SVG/1.1/DTD/svg11.dtd"><svg t="1775886464810" class="icon" viewBox="0 0 1024 1024" version="1.1" xmlns="http://www.w3.org/2000/svg" p-id="7601" xmlns:xlink="http://www.w3.org/1999/xlink" width="32" height="32"><path d="M23.7568 760.5248V130.9696c0-26.5216 19.456-52.9408 45.568-52.9408H948.224c32.4608 6.5536 52.0192 26.4192 52.0192 52.9408v629.5552c0 26.4192-19.456 52.9408-45.568 52.9408H69.3248c-26.0096 0-45.568-19.8656-45.568-52.9408z m84.5824-13.312h813.7728c13.0048 0 19.5584-6.656 19.5584-19.8656v-563.2c0-13.312-6.5536-19.8656-19.456-19.8656H108.2368c-13.0048 0-19.456 13.312-19.456 19.8656v563.2c-6.5536 13.312 6.4512 19.8656 19.456 19.8656z m729.088-198.7584H668.3648l-182.272-178.8928L349.184 548.4544H186.368c-19.456 0-32.5632-13.312-32.5632-33.1776s13.1072-33.0752 32.5632-33.0752h130.2528l162.816-205.4144L694.272 482.2016H837.632c19.456 0 32.5632 13.312 32.5632 33.0752 0 19.8656-13.1072 33.1776-32.5632 33.1776zM186.5728 879.616H837.632c19.456 0 32.5632 13.312 32.5632 33.1776s-13.1072 33.0752-32.5632 33.0752H186.368c-19.456 0-32.5632-13.312-32.5632-33.0752 0-13.312 13.1072-33.1776 32.5632-33.1776-6.4512 0 0 0 0 0z" fill="#e6e6e6" p-id="7602"></path></svg>