<?xml version="1.0" encoding="UTF-8"?>
<svg width="16px" height="16px" viewBox="0 0 16 16" version="1.1" xmlns="http://www.w3.org/2000/svg" xmlns:xlink="http://www.w3.org/1999/xlink">
    <title>expand-全屏化</title>
    <g id="门户" stroke="none" stroke-width="1" fill="none" fill-rule="evenodd">
        <g id="门户首页-办公模式-深色" transform="translate(-1864.000000, -776.000000)" fill="#FFFFFF" fill-rule="nonzero">
            <g id="基础面板样式-com" transform="translate(1440.000000, 764.000000)">
                <g id="expand-全屏化" transform="translate(424.000000, 12.000000)">
                    <rect id="矩形" opacity="0" x="0" y="0" width="16" height="16"></rect>
                    <path d="M15.2,0 L10.4,0 C9.9581722,0 9.6,0.3581722 9.6,0.8 C9.6,1.2418278 9.9581722,1.6 10.4,1.6 L13.2687969,1.6 L9.8345625,5.03423437 C9.53130007,5.34812482 9.5355967,5.84715892 9.84421889,6.15578111 C10.1528411,6.4644033 10.6518752,6.46869993 10.9657656,6.1654375 L14.4,2.73120312 L14.4,5.6 C14.4,6.0418278 14.7581722,6.4 15.2,6.4 C15.6418278,6.4 16,6.0418278 16,5.6 L16,0.8 C16,0.3581722 15.6418278,0 15.2,0 L15.2,0 Z M6.4,0.8 C6.4,0.3581722 6.0418278,0 5.6,0 L0.8,0 C0.359046446,0.00210352 0.00210352,0.359046446 0,0.8 L0,5.6 C0,6.0418278 0.3581722,6.4 0.8,6.4 C1.2418278,6.4 1.6,6.0418278 1.6,5.6 L1.6,2.73120312 L5.03423438,6.16576563 C5.34812482,6.46902805 5.84715892,6.46473142 6.15578111,6.15610924 C6.4644033,5.84748705 6.46869993,5.34845294 6.1654375,5.0345625 L2.73120312,1.6 L5.6,1.6 C6.0418278,1.6 6.4,1.2418278 6.4,0.8 Z M16,10.4 C16,9.9581722 15.6418278,9.6 15.2,9.6 C14.7581722,9.6 14.4,9.9581722 14.4,10.4 L14.4,13.2687969 L10.9657656,9.8345625 C10.6518752,9.53130007 10.1528411,9.5355967 9.84421889,9.84421889 C9.5355967,10.1528411 9.53130007,10.6518752 9.8345625,10.9657656 L13.2687969,14.4 L10.4,14.4 C9.9581722,14.4 9.6,14.7581722 9.6,15.2 C9.6,15.6418278 9.9581722,16 10.4,16 L15.2,16 C15.6409536,15.9978965 15.9978965,15.6409536 16,15.2 L16,10.4 Z M5.6,14.4 L2.73120312,14.4 L6.16576563,10.9657656 C6.46902805,10.6518752 6.46473142,10.1528411 6.15610924,9.84421889 C5.84748705,9.5355967 5.34845294,9.53130007 5.0345625,9.8345625 L1.6,13.2687969 L1.6,10.4 C1.6,9.9581722 1.2418278,9.6 0.8,9.6 C0.3581722,9.6 0,9.9581722 0,10.4 L0,15.2 C0,15.6418278 0.3581722,16 0.8,16 L5.6,16 C6.0418278,16 6.4,15.6418278 6.4,15.2 C6.4,14.7581722 6.0418278,14.4 5.6,14.4 Z" id="形状"></path>
                </g>
            </g>
        </g>
    </g>
</svg>