<?xml version="1.0" standalone="no"?><!DOCTYPE svg PUBLIC "-//W3C//DTD SVG 1.1//EN" "http://www.w3.org/Graphics/SVG/1.1/DTD/svg11.dtd"><svg t="1775886382443" class="icon" viewBox="0 0 1024 1024" version="1.1" xmlns="http://www.w3.org/2000/svg" p-id="5184" xmlns:xlink="http://www.w3.org/1999/xlink" width="32" height="32"><path d="M300.8 819.2H160c-19.2 0-32-12.8-32-32V185.6h588.8v83.2c0 19.2 12.8 32 32 32s32-12.8 32-32v-128c0-57.6-44.8-102.4-102.4-102.4H160C102.4 38.4 57.6 83.2 57.6 140.8v646.4c0 57.6 44.8 102.4 102.4 102.4h134.4c19.2 0 32-12.8 32-32 6.4-19.2-6.4-38.4-25.6-38.4z" p-id="5185" fill="#e6e6e6"></path><path d="M371.2 505.6c0-19.2-19.2-38.4-38.4-38.4H243.2c-19.2 0-38.4 19.2-38.4 38.4s19.2 38.4 38.4 38.4h89.6c19.2 0 38.4-19.2 38.4-38.4zM576 313.6c0-19.2-19.2-38.4-38.4-38.4H243.2c-19.2 0-38.4 19.2-38.4 38.4s19.2 38.4 38.4 38.4h294.4c25.6 0 38.4-19.2 38.4-38.4zM243.2 652.8c-19.2 0-38.4 19.2-38.4 38.4s19.2 38.4 38.4 38.4h19.2c19.2 0 38.4-19.2 38.4-38.4s-19.2-38.4-38.4-38.4h-19.2zM761.6 582.4l-147.2 147.2-57.6-57.6c-12.8-12.8-38.4-12.8-51.2 0-12.8 12.8-12.8 38.4 0 51.2l64 64c12.8 12.8 25.6 19.2 44.8 19.2 19.2 0 32-6.4 44.8-19.2l153.6-153.6c12.8-12.8 12.8-38.4 0-51.2-19.2-12.8-38.4-12.8-51.2 0z" p-id="5186" fill="#e6e6e6"></path><path d="M659.2 364.8c-172.8 0-307.2 140.8-307.2 307.2 0 172.8 140.8 307.2 307.2 307.2s307.2-140.8 307.2-307.2c0-166.4-140.8-307.2-307.2-307.2z m0 550.4c-134.4 0-243.2-108.8-243.2-243.2s108.8-243.2 243.2-243.2S896 544 896 678.4s-108.8 236.8-236.8 236.8z" p-id="5187" fill="#e6e6e6"></path></svg>