<?xml version="1.0" standalone="no"?><!DOCTYPE svg PUBLIC "-//W3C//DTD SVG 1.1//EN" "http://www.w3.org/Graphics/SVG/1.1/DTD/svg11.dtd"><svg t="1775886317703" class="icon" viewBox="0 0 1024 1024" version="1.1" xmlns="http://www.w3.org/2000/svg" p-id="3583" xmlns:xlink="http://www.w3.org/1999/xlink" width="32" height="32"><path d="M640 131.136a415.872 415.872 0 0 1 21.248 784 416.256 416.256 0 0 1-503.808-170.688 416.128 416.128 0 0 1 76.032-526.528 32 32 0 0 1 42.816 47.488 352.128 352.128 0 0 0 361.984 590.08 352.064 352.064 0 0 0 219.84-392.832A352.064 352.064 0 0 0 640 199.04v54.72L448 142.848 640 32v99.136zM540.16 334.848l10.176 49.664c12.672 3.392 24.448 8.32 35.456 14.72l42.112-27.968 39.872 39.872-27.968 42.112c6.272 11.072 11.264 22.848 14.656 35.456l49.536 10.048v56.32l-49.664 10.048a140.8 140.8 0 0 1-14.656 35.52l27.968 42.048-39.808 39.872-42.112-27.904a147.008 147.008 0 0 1-35.456 14.592l-10.048 49.6h-56.448l-9.984-49.6a143.68 143.68 0 0 1-35.52-14.656l-42.048 27.968-39.872-39.872 27.904-42.048a142.528 142.528 0 0 1-14.72-35.52L320 555.136V498.56l49.6-9.984c3.328-12.608 8.32-24.512 14.72-35.52l-27.968-42.048 39.872-39.872 42.048 27.904c11.072-6.4 22.912-11.328 35.52-14.72l10.112-49.536h56.32zM512 430.848a96 96 0 1 0 0.192 192 96 96 0 0 0-0.192-192z" fill="#e6e6e6" p-id="3584"></path></svg>