<?xml version="1.0" encoding="UTF-8"?>
<svg width="16px" height="17px" viewBox="0 0 16 17" version="1.1" xmlns="http://www.w3.org/2000/svg" xmlns:xlink="http://www.w3.org/1999/xlink">
    <title>expand-全屏化备份</title>
    <g id="页面-2" stroke="none" stroke-width="1">
        <g id="门户首页-办公模式4" transform="translate(-1408.000000, -153.000000)">
            <g id="基础面板样式-com" transform="translate(20.000000, 140.000000)">
                <g id="expand-全屏化备份" transform="translate(1388.000000, 13.025641)">
                    <rect id="矩形" opacity="0" x="0" y="0" width="16" height="16"></rect>
                    <path d="M10.4,6.4 L15.2,6.4 C15.6418278,6.4 16,6.0418278 16,5.6 C16,5.1581722 15.6418278,4.8 15.2,4.8 L12.3312031,4.8 L15.7654375,1.36576563 C16.0686999,1.05187518 16.0644033,0.552841077 15.7557811,0.244218889 C15.4471589,-0.0644032992 14.9481248,-0.0686999256 14.6342344,0.2345625 L11.2,3.66879688 L11.2,0.8 C11.2,0.3581722 10.8418278,0 10.4,0 C9.9581722,0 9.6,0.3581722 9.6,0.8 L9.6,5.6 C9.6,6.0418278 9.9581722,6.4 10.4,6.4 L10.4,6.4 Z M0,5.6 C0,6.0418278 0.3581722,6.4 0.8,6.4 L5.6,6.4 C6.04095355,6.39789648 6.39789648,6.04095355 6.4,5.6 L6.4,0.8 C6.4,0.3581722 6.0418278,0 5.6,0 C5.1581722,0 4.8,0.3581722 4.8,0.8 L4.8,3.66879688 L1.36576562,0.234234375 C1.05187518,-0.0690280506 0.552841077,-0.0647314242 0.244218889,0.243890764 C-0.0644032992,0.552512952 -0.0686999256,1.05154706 0.2345625,1.3654375 L3.66879688,4.8 L0.8,4.8 C0.3581722,4.8 0,5.1581722 0,5.6 Z M9.6,15.2 C9.6,15.6418278 9.9581722,16 10.4,16 C10.8418278,16 11.2,15.6418278 11.2,15.2 L11.2,12.3312031 L14.6342344,15.7654375 C14.9481248,16.0686999 15.4471589,16.0644033 15.7557811,15.7557811 C16.0644033,15.4471589 16.0686999,14.9481248 15.7654375,14.6342344 L12.3312031,11.2 L15.2,11.2 C15.6418278,11.2 16,10.8418278 16,10.4 C16,9.9581722 15.6418278,9.6 15.2,9.6 L10.4,9.6 C9.95904645,9.60210352 9.60210352,9.95904645 9.6,10.4 L9.6,15.2 Z M0.8,11.2 L3.66879688,11.2 L0.234234375,14.6342344 C-0.0690280506,14.9481248 -0.0647314242,15.4471589 0.243890764,15.7557811 C0.552512952,16.0644033 1.05154706,16.0686999 1.3654375,15.7654375 L4.8,12.3312031 L4.8,15.2 C4.8,15.6418278 5.1581722,16 5.6,16 C6.0418278,16 6.4,15.6418278 6.4,15.2 L6.4,10.4 C6.4,9.9581722 6.0418278,9.6 5.6,9.6 L0.8,9.6 C0.3581722,9.6 0,9.9581722 0,10.4 C0,10.8418278 0.3581722,11.2 0.8,11.2 Z" id="形状"></path>
                </g>
            </g>
        </g>
    </g>
</svg>