<?xml version="1.0" standalone="no"?><!DOCTYPE svg PUBLIC "-//W3C//DTD SVG 1.1//EN" "http://www.w3.org/Graphics/SVG/1.1/DTD/svg11.dtd"><svg t="1775885419023" class="icon" viewBox="0 0 1025 1024" version="1.1" xmlns="http://www.w3.org/2000/svg" p-id="2299" xmlns:xlink="http://www.w3.org/1999/xlink" width="32.03125" height="32"><path d="M125.547893 910.222222h380.56705v88.275862H72.582375c-33.348659 0-58.850575-25.501916-58.850574-58.850574V78.467433c0-33.348659 25.501916-58.850575 58.850574-58.850575h735.632184c33.348659 0 58.850575 25.501916 58.850575 58.850575v292.291188h-88.275862V131.43295c0-13.731801-11.770115-23.54023-23.54023-23.54023h-627.739463c-13.731801 0-23.54023 11.770115-23.54023 23.54023v753.287357c-1.961686 13.731801 7.846743 25.501916 21.578544 25.501915z" p-id="2300" fill="#e6e6e6"></path><path d="M207.938697 213.823755h470.804598V294.252874h-470.804598zM205.977011 429.609195h209.900384V510.038314H205.977011zM204.015326 647.356322h209.900383v80.429119H204.015326zM1008.306513 945.532567l-133.394636-133.394636c-1.961686-1.961686-3.923372-1.961686-3.923371-3.923372 21.578544-35.310345 35.310345-76.505747 35.310345-119.662835 0-121.624521-98.084291-219.708812-219.708813-219.708812-121.624521 0-219.708812 98.084291-219.708812 219.708812 0 121.624521 98.084291 219.708812 219.708812 219.708812 45.118774 0 86.314176-13.731801 119.662836-35.310344 1.961686 1.961686 1.961686 3.923372 3.923371 3.923371l133.394636 133.394636c9.808429 9.808429 21.578544 13.731801 33.348659 13.731801 11.770115 0 23.54023-3.923372 33.348659-13.731801 15.693487-17.655172 15.693487-47.08046-1.961686-64.735632M686.590038 839.601533c-82.390805 0-151.049808-66.697318-151.049808-151.049809 0-82.390805 66.697318-151.049808 151.049808-151.049808 82.390805 0 151.049808 66.697318 151.049809 151.049808-1.961686 84.35249-68.659004 151.049808-151.049809 151.049809" p-id="2301" fill="#e6e6e6"></path></svg>