<?xml version="1.0" standalone="no"?><!DOCTYPE svg PUBLIC "-//W3C//DTD SVG 1.1//EN" "http://www.w3.org/Graphics/SVG/1.1/DTD/svg11.dtd"><svg t="1775886428847" class="icon" viewBox="0 0 1024 1024" version="1.1" xmlns="http://www.w3.org/2000/svg" p-id="7374" xmlns:xlink="http://www.w3.org/1999/xlink" width="32" height="32"><path d="M926.224213 592.384c59.093333 0 88.618667 29.738667 88.618667 89.301333v253.013334c0 59.52-29.525333 89.301333-88.618667 89.301333h-251.136c-59.093333 0-88.618667-29.781333-88.618666-89.301333v-253.013334c0-59.562667 29.525333-89.301333 88.618666-89.301333h251.136z m-505.173333 5.12c9.386667 0 18.304 2.346667 26.581333 7.125333a52.48 52.48 0 0 1 17.706667 71.424l-184.32 310.784c-4.181333 7.722667-10.666667 13.653333-18.346667 17.834667a51.541333 51.541333 0 0 1-70.912-17.834667l-184.32-310.784a52.138667 52.138667 0 0 1 44.928-78.592h-0.042666zM787.941547 0C945.680213 0 1024.31488 79.189333 1024.31488 238.122667c0 158.976-78.592 238.165333-236.373333 238.165333-157.738667 0-236.373333-79.189333-236.373334-238.165333C551.568213 79.786667 630.84288 0 787.941547 0zM357.17888 35.114667c59.093333 0 88.618667 29.781333 88.618667 89.301333v253.013333c0 59.562667-29.525333 89.344-88.618667 89.344H106.085547c-59.093333 0-88.618667-29.781333-88.618667-89.301333v-253.013333c0-59.562667 29.525333-89.344 88.618667-89.344h251.136z" fill="#e6e6e6" p-id="7375"></path></svg>